<?xml version="1.0" encoding="utf-8"?>
<!-- Generator: Adobe Illustrator 21.0.0, SVG Export Plug-In . SVG Version: 6.00 Build 0)  -->
<svg version="1.1" id="Layer_1" xmlns="http://www.w3.org/2000/svg" xmlns:xlink="http://www.w3.org/1999/xlink" x="0px" y="0px"
	 viewBox="0 0 255 61.9" style="enable-background:new 0 0 255 61.9;" xml:space="preserve">
<style type="text/css">
	.st0{fill:#35363A;}
	.st1{fill:#CAB67B;}
</style>
<g>
	<g>
		<path class="st0" d="M252.8,44.8c-0.1-0.1-0.2-0.2-0.2-0.2c-0.1,0-0.1,0.1-0.2,0.3c-0.2,0.7-0.4,1.2-0.4,1.6
			c0.3,0.6,0.5,0.9,0.5,0.9c-0.2,0.3-0.5,0.4-1,0.4c-0.4,0-0.8-0.1-1.1-0.4c-0.3-0.2-0.4-0.5-0.4-0.7c0,0.1,0.1-0.2,0.2-0.9v-0.2
			c0-0.2-0.1-0.2-0.2-0.2c-0.1,0-0.2,0.1-0.3,0.2c-0.4,0.6-0.8,1.2-1.1,1.8c-0.6,0.8-1.2,1.2-2,1.2c-0.6,0-1.3-0.2-2.1-0.7
			c-0.8-0.4-1.5-0.7-2.3-0.7l0,0h-0.1c0,0,0,0-0.1,0l0,0c-1.9,0.1-5,1.5-7.4,4.3c-1,1.2-2,2.3-3,3.5c-1.2,1.2-2.2,1.9-3,1.9
			c-0.5,0-0.9-0.2-1.2-0.6c-0.3-0.4-0.4-0.8-0.4-1.4c0-0.4,0.1-0.9,0.2-1.4c1.2-1.4,0.9-2.9,0.9-2.9l0.2-0.4c0,0-0.8-1.2-1-1.7
			c-0.1-0.1-0.5-0.8-0.8-1c0,0,0,0-0.1-0.1c-2.6-2.4-3.8-2.7-5-3.8c0.4,0,0.7,0,1,0s0.4-0.1,0.4-0.1c0-0.1-0.3-0.3-0.8-0.6l-3.1-1.8
			c-0.1,0-0.2-0.1-0.1-0.2c0.5-0.4,1.2-0.8,2-1.3c0,0.1,0,0.1,0,0.1s0.1-0.1,0.1-0.2c1.6-0.9,3.7-2,6.4-3.2c4.2-1.9,6.8-2.9,8-2.9
			c0.7,0,1.1,0.1,1.1,0.3v0.1c-0.2,0.4-1,1.3-2.2,2.6c-0.1,0.2-0.4,0.5-0.6,1c-0.3,0.5-0.5,0.9-0.5,1.1c-0.1,0.4-0.1,0.6,0,0.6
			c0,0,0.1-0.2,0.3-0.5c0.2-0.4,0.6-1,1.3-1.7c0.4-0.4,0.8-0.9,1.2-1.3c1.1-1.3,1.6-2.3,1.5-3.2c0-0.4-0.1-0.6-0.3-0.8
			c-0.2-0.1-0.5-0.2-0.9-0.2c-1.5,0.1-4.4,1.1-8.8,3.1c-1.6,0.7-3,1.4-4.2,2c0.2-0.2,0.3-0.4,0.5-0.5c1.1-1.3,1.6-2.5,1.6-3.4
			c0-0.4-0.1-0.7-0.2-0.8c-0.2-0.2-0.4-0.2-0.9-0.2c-1.4,0-4.3,1-8.6,2.9s-7.1,3.4-8.4,4.6c-0.5,0.5-1,1.8-1,3.8
			c0,0.1,0.9,0.4,1,0.6c0.2,0.2,0.6,0.6,0.9,0.8l0,0c0.7,0.6,1.2,1.1,1.6,1.6c0.3,0.4,0.5,0.6,0.5,0.7l-0.1,0.2
			c-0.8,0.8-1.6,1.2-2.5,1.2c-0.6,0-1-0.2-1.4-0.6c-0.3-0.3-0.5-0.7-0.5-1c0-0.1,0-0.2,0-0.5c0-0.2,0-0.4,0-0.4
			c0-0.2-0.1-0.2-0.2-0.2c-0.1,0-0.2,0.1-0.4,0.2c-1.1,0.7-2.2,1.2-3,1.5c-0.1,0-0.2,0.1-0.2,0.1c-0.4-0.8-0.8-1.4-1.3-2
			s-1.1-0.9-1.5-0.9c-0.6,0-1.2,0.3-1.8,1s-0.9,1.5-0.9,2.5c0,1.2,0.9,1.8,2.7,1.8c0.8,0,1.5-0.1,1.9-0.2c0.1,0.3,0.1,0.5,0.1,0.7
			c0,0.3-0.5,1-1.6,2c-1.2,1.1-2.4,2.1-3.7,2.8c-1.6,1-2.9,1.4-4,1.4c-1.3,0-2.2-0.4-2.8-1.2c-0.4-0.6-0.6-1.2-0.6-2
			c0-0.6,0.1-1.3,0.3-2.2c1.3-0.9,2.4-1.3,3.5-1.3c0.9,0,1.6,0.4,2,1.2c0.1,0.2,0.2,0.2,0.2,0.2s0.1-0.1,0.2-0.2
			c0.2-0.5,0.3-1,0.3-1.6c0-0.5-0.2-0.9-0.7-1.3c-0.4-0.4-1-0.6-1.6-0.6c-2.2,0-4.6,1.4-7.4,4.3c-1.9,2-2.9,3-3,3.1
			c-1.1,1-2.1,1.5-3,1.5c-0.5,0-1-0.2-1.3-0.6c-0.3-0.4-0.4-0.8-0.4-1.4c0-0.8,0.3-1.8,0.8-3.1c0.7-0.7,1.3-1.6,1.8-2.7
			c1.4,1.1,2.9,1.6,4.3,1.6c0.3,0,0.5-0.3,0.8-0.9c0.2-0.6,0.4-1.2,0.4-2s-0.1-1.5-0.4-2.2c-0.4-0.9-0.9-1.3-1.6-1.3
			c-0.6,0-1.2,0.3-1.8,0.9c-0.4,0.4-0.8,0.9-1,1.4c-0.2,0-0.3,0.3-0.5,0.7c-0.4,0.9-0.7,1.4-0.7,1.6c-0.1,0.2-0.2,0.3-0.3,0.5l0,0
			c-0.1,0-0.2,0.1-0.3,0.3c-0.3,0.3-0.7,0.5-1.1,0.7c-0.7,0.3-1.4,0.4-2.1,0.4l0,0c-0.8,0-1.7-0.3-2.7-0.9c-0.4-0.2-1.2-0.8-2.4-1.9
			c-1.9-1.6-4.2-3.1-6.7-4.5c-1.1-0.6-2.1-1.1-3.2-1.7c-0.1-0.1-0.1-0.1,0-0.2c1.5-1.2,4.3-2.8,8.5-4.7c4.1-1.9,6.7-2.8,7.9-2.8
			c0.7,0,1,0.1,1,0.4v0.1c-0.2,0.4-1,1.4-2.2,2.8c-0.1,0.2-0.4,0.5-0.7,1c-0.3,0.6-0.5,1-0.5,1.2c-0.1,0.4-0.1,0.6-0.1,0.6
			s0.1-0.2,0.3-0.5c0.2-0.5,0.7-1.1,1.3-1.9c0.4-0.5,0.8-0.9,1.2-1.4c1.1-1.4,1.7-2.5,1.7-3.4c0-0.4-0.1-0.7-0.2-0.8
			c-0.2-0.2-0.4-0.2-0.9-0.2c-1.4,0-4.3,1-8.7,2.9c-4.3,1.9-7.2,3.5-8.5,4.7c-0.2,0.2-0.4,0.7-0.6,1.4c-0.2,0.7-0.3,1.3-0.3,1.7
			c0,0.2,0,0.4,0.1,0.4c2,1.5,3.9,3,5.9,4.6c1.7,1.4,2.8,2.5,3.1,3.5c0,0.1,0,0.2-0.1,0.3c-0.7,0.9-1.6,1.3-2.6,1.3
			c-0.7,0-1.3-0.1-1.7-0.3s-0.9-0.6-1.3-1.2c-0.3-0.5-0.6-1-0.9-1.4c-0.4-0.5-0.7-0.8-1.2-0.8c-0.6,0-1.2,0.3-1.8,1
			c-0.7,0.7-1.2,1.5-1.7,2.4c-0.5,1.1-1,2.2-1.6,3.4c-0.5,0.9-1.1,1.4-1.7,1.4c-1.5,0-2.3-1.6-2.3-4.8c0-0.7,0.1-1.5,0.2-2.5
			c0-0.4,0-0.6-0.1-0.6s-0.2,0.2-0.3,0.5c-0.3,0.9-0.5,2.1-0.5,3.6c0,1.3,0.3,2.5,0.8,3.6c0.6,1.3,1.3,2,2.2,2
			c0.6,0,1.1-0.4,1.6-1.1c0.3-0.5,0.7-1.3,1.2-2.4c0.4-1.1,0.7-1.8,0.9-2c1-1.5,1.9-2.2,2.7-2.2c0.3,0,0.6,0.2,0.8,0.6
			c0.3,0.5,0.6,1,0.9,1.5c0.5,0.8,1.1,1.2,1.9,1.5c0.3,0.1,0.9,0.1,1.7,0.1l0,0l0,0l0,0l0,0c0.7,0,1.4-0.4,2.1-1.1
			c0.8-0.9,1.2-1.9,1.2-3.1c0-0.4-0.2-1-0.5-1.7c-0.1-0.2-0.1-0.3-0.1-0.3s0.1,0.1,0.2,0.1c0.6,0.4,1.4,1.1,2.3,1.9
			c0.8,0.7,1.4,1.2,1.8,1.5c0.7,0.4,1.5,0.6,2.3,0.6l0,0c0.6,0,1.3-0.2,1.9-0.6c-0.4,1-0.5,1.9-0.5,2.7c0,1,0.3,1.9,0.9,2.6
			c0.6,0.7,1.3,1,2,1c0.9,0,1.9-0.5,2.9-1.6c1.2-1.3,2.4-2.5,3.6-3.8c0.6-0.6,1.1-1.1,1.7-1.5c-0.2,1-0.4,1.9-0.4,2.8
			c0,1.2,0.3,2.2,0.9,3c0.7,0.9,1.6,1.4,2.9,1.4c1.5,0,3.2-0.7,5.2-2.2c1.3-1,2.6-2.2,3.7-3.5c0.5-0.6,0.9-1.3,1.1-2.1
			c0.2-0.7,0.3-1.2,0.3-1.6h0.1c0.6-0.3,1.6-0.7,2.6-1.4c0,0.2,0,0.3,0,0.5c0,0.6,0.2,1.1,0.6,1.5c0.5,0.5,1.2,0.7,2.1,0.7
			c0.7,0,1.4-0.4,2.1-1.2c0.8-0.9,1.2-1.9,1.2-3c0-0.8-0.2-1.5-0.6-2.1c-0.2-0.3-0.5-0.6-1-1.1c0.4,0,0.7,0.1,0.9,0.1
			c0.3,0,0.4,0,0.4-0.1s-0.1-0.2-0.3-0.4s-0.5-0.3-0.7-0.4c-0.7-0.3-2.4-1.1-2.3-1.1c1.5-1.2,4.3-2.7,8.5-4.6
			c4.1-1.8,6.7-2.8,7.8-2.8c0.7,0,1,0.1,1,0.4v0.1c-0.2,0.4-1,1.3-2.2,2.7c-0.1,0.1-0.2,0.3-0.4,0.5c-1.3,0.7-2.2,1.3-2.8,1.9
			c-0.5,0.4-0.7,1.6-0.6,3.5c0,0.1,0.1,0.2,0.2,0.3c0.2,0.2,0.4,0.3,0.4,0.4c1.1,1.2,2.6,2,4.3,3.1c0.4,0.3,2,1.6,2.9,2.4
			c0.6,0.5,1,1.2,1.1,1.9c0,0.1,0,0.1,0,0.2c0,0.1,0,0.2-0.1,0.3c0,0.1-0.1,0.1-0.1,0.2c-0.8,0.7-1.5,1-2.3,1.1l0,0
			c-0.7,0-1.3-0.1-1.7-0.3s-0.9-0.6-1.3-1.2c-0.3-0.5-0.6-0.9-0.9-1.4c-0.3-0.5-0.7-0.8-1.1-0.8c-0.5,0-1.1,0.3-1.8,1
			s-1.2,1.4-1.7,2.3c-0.5,1.1-1,2.6-1.5,3.7c-0.5,0.9-1,1.4-1.6,1.4c-1.5,0-2.2-1.6-2.2-4.7c0-0.7,0.1-1.5,0.2-2.4
			c0-0.4,0-0.6-0.1-0.6s-0.2,0.2-0.2,0.5c-0.3,0.9-0.5,2.1-0.5,3.6c0,1.2,0.3,2.4,0.8,3.6c0.6,1.3,1.3,2,2.1,2
			c0.6,0,1.1-0.4,1.6-1.1c0.3-0.5,0.7-1.6,1.1-2.7c0.4-1.1,0.7-1.8,0.9-2c0.9-1.4,1.8-2.2,2.7-2.2c0.3,0,0.5,0.2,0.8,0.6
			c0.3,0.5,0.6,1,0.9,1.5c0.5,0.7,1.1,1.2,1.8,1.4c0.3,0.1,0.9,0.1,1.7,0.1c0.7,0,1.3-0.4,2-1.1c-0.1,0.5-0.1,0.9-0.1,1.3
			c0,1,0.3,1.9,0.9,2.6c0.6,0.7,1.2,1,2,1c0.7,0,1.3-0.3,2-0.9c0.4-0.4,1.1-1.1,2-2.2c1-1.3,1.9-2.2,2.5-2.9c2-2,4.6-3.1,6.3-3.2
			c0.4,0,0.9,0.2,1.7,0.7s1.5,0.7,2,0.7c1.3,0,2.4-0.7,3.2-2.2c0.5,0.9,1.1,1.4,1.7,1.4c0.9,0,1.5-0.4,2-1.2
			c0.4-0.7,0.6-1.5,0.6-2.4C253.2,45.8,253.1,45.3,252.8,44.8z M198.9,47.5c-0.9,0-1.4-0.2-1.4-0.7c0-0.3,0.3-0.5,1-0.5
			c0.5,0,0.9,0.3,1.5,1C199.6,47.5,199.3,47.5,198.9,47.5z M181.8,46.4c0.2-0.2,0.6-0.3,1-0.3c0.3,0,0.6,0.1,0.8,0.4
			s0.5,0.5,0.6,0.9c0,0.1,0,0.2,0,0.3s-0.1,0.2-0.2,0.2c-0.1,0-0.2,0-0.3,0c-0.9-0.3-1.6-0.6-2.3-1.1
			C181.5,46.6,181.6,46.5,181.8,46.4z"/>
		<path class="st0" d="M153.7,44.8c0.4,5.3,0.6,8.2,0.6,9s0,1.5-0.1,2.1c-0.1,0.4-0.1,0.7,0,0.9c0,0.1,0.1,0.1,0.2-0.1
			c0.1-0.1,0.2-0.3,0.3-0.6c0.5-1.3,0.8-2.9,0.8-4.7c0-0.6-0.2-3.2-0.5-7.7c-0.3-4.6-0.5-6.9-0.5-7c0-0.2,0-0.2,0.1-0.1
			c0.6,0.7,1,0.9,1,0.6c0-0.1,0-0.3-0.1-0.5c-0.1-0.3-0.3-1-0.8-2.2c-0.4-1.2-0.7-1.9-0.8-2.1c-0.1-0.1-0.1-0.2-0.2-0.2
			c0,0-0.1,0.1-0.1,0.2c-0.4,1-0.6,1.6-0.6,1.9c0.2,0.5,0.3,1.1,0.3,1.8C153.1,36.6,153.3,39.5,153.7,44.8z"/>
		<path class="st0" d="M149.9,36.4c0-0.2,0-0.2,0.1-0.2c0.7,0.7,1,0.9,1,0.6c0-0.1,0-0.3-0.1-0.5c-0.1-0.4-0.4-1.1-0.9-2.2
			c-0.5-1-0.8-1.7-1-2c-0.1-0.1-0.1-0.2-0.2-0.2c0,0-0.1,0.1-0.2,0.2c0,0.1-0.1,0.4-0.3,0.9s-0.2,0.8-0.2,0.9c0,0,0.1,0.3,0.2,0.7
			c0.1,0.4,0.2,0.8,0.2,1.1c0,0.6,0.3,3,0.8,7.3s0.8,7.2,0.8,8.6c0,0.7-0.5,1.6-1.5,2.7c-0.7,0.8-1.5,1.4-2.2,1.9
			c-2.3,1.4-3.9,2.4-4.9,3c-0.2,0.1-0.3,0.2-0.3,0.3c0,0,0.1,0.1,0.3,0c0.5,0,1.3-0.2,2.4-0.5c1.1-0.3,1.9-0.5,2.3-0.7
			c1.2-0.5,2.2-1.4,3.1-2.7c1.2-1.6,1.7-3.7,1.7-6.2c0-1.2-0.2-3.5-0.6-6.9C150.1,39,149.9,37,149.9,36.4z"/>
		<path class="st0" d="M135.6,36c0.2,0.1,0.4,0.3,0.6,0.6c0.3,0.4,0.5,0.9,0.8,1.3c0.5,0.7,0.9,1.4,1.3,1.9c0.6,0.7,1.5,1.7,2.6,2.8
			c1.1,1,2.1,2,3.2,3c2.5,2.4,3.8,4.5,4.1,6.3c0.2,1.1,0.3,1.7,0.3,1.7c0.1,0,0.2-0.7,0.3-2.1c0-0.2,0-0.3,0-0.5c0-2-1.3-4.3-4-7
			c-1.3-1.3-2.7-2.7-4-4c-1.8-1.8-2.9-3.1-3.2-3.7c0.6,0.1,1,0.2,1.2,0.2s0.2,0,0.2-0.1s-0.1-0.2-0.3-0.4l-2.9-2.2
			c-0.2-0.2-0.3-0.2-0.4-0.2c-0.1,0-0.2,0.2-0.2,0.5v1.5C135.4,35.8,135.5,36,135.6,36z"/>
		<path class="st0" d="M143.7,50.8c0.4-0.7,0.6-1.5,0.6-2.4c0-0.2-0.1-0.5-0.2-0.8c-0.1-0.4-0.3-0.6-0.4-0.6c-0.1,0-0.1,0.1-0.2,0.3
			c-0.3,1-0.5,1.5-0.5,1.6s0.1,0.2,0.2,0.3c0.1,0.1,0.2,0.2,0.2,0.3c-0.2,0.3-0.5,0.4-1,0.4c-0.4,0-0.8-0.1-1.2-0.4
			c-0.3-0.3-0.5-0.5-0.5-0.8c0,0.1,0.1-0.2,0.2-0.9v-0.2c0-0.2-0.1-0.3-0.2-0.3c-0.1,0-0.2,0.1-0.3,0.2c-0.4,0.6-0.8,1.2-1.2,1.8
			c-0.6,0.8-1.4,1.2-2.4,1.2c-0.7,0-1.2-0.1-1.6-0.4c-0.4-0.3-0.7-0.7-0.7-1.2c0-0.2,0-0.5,0.1-0.8s0-0.4-0.2-0.4
			c-0.1,0-0.3,0.1-0.4,0.2c-1.2,1.2-2,1.9-2.3,2.1c-0.9,0.6-1.9,0.9-3,0.9l0,0c-0.7,0-1.1-0.2-1.5-0.5c-0.5-0.5-0.9-1.5-1.1-3
			c-0.4-2.4-0.9-4.2-1.4-5.2c-0.1-0.1-0.1-0.2-0.2-0.2c0,0-0.1,0.1-0.2,0.3c-0.2,0.5-0.4,1.2-0.4,2.1c0,0,0.1,0.2,0.2,0.5
			c0.2,0.7,0.5,1.6,0.7,2.6s0.3,1.6,0.3,1.9c0,1-0.6,1.5-1.7,1.5c-0.8,0-1.5-0.3-2-0.8c-0.3-0.3-0.5-0.8-0.9-1.6
			c-0.2-0.6-0.5-0.8-0.7-0.8c-0.6,0-1.3,0.5-2,1.4c-0.8,1.1-1.3,2.3-1.4,3.7c0,0.4,0.1,0.9,0.3,1.5l0,0c-1.5,0.9-2.8,1.3-3.8,1.3
			l0,0c-0.6,0-1-0.1-1.3-0.3c-0.5-0.3-0.9-1-1.1-2.1c-0.1-0.4-0.1-2.5-0.3-6.5c-0.1-4.2-0.3-7-0.4-8.4c-0.2-2.3-0.6-3.9-1.1-4.9
			c-0.1-0.2-0.1-0.2-0.2-0.2c0,0-0.1,0.1-0.2,0.3c-0.3,0.7-0.5,1.3-0.5,1.7c0.5,1.4,0.8,2.9,0.9,4.5c0.1,1,0.2,3.6,0.3,7.9
			c0.1,4,0.3,6.4,0.4,7.2c0.2,1.3,0.7,2.2,1.3,2.7c0.5,0.3,1.1,0.5,1.9,0.5l0,0c1.1,0,2.6-0.5,4.4-1.6c0.2,0.6,0.6,1.1,1.1,1.6
			c0.7,0.7,1.4,1,2.1,1c0.5,0,1-0.2,1.3-0.7s0.5-1.1,0.5-1.8c0-0.9-0.2-1.6-0.6-2.2c-0.4-0.5-0.9-0.8-1.6-0.8
			c-0.8,0-1.6,0.2-2.3,0.5c-0.4-0.4-0.6-0.9-0.6-1.3c0-0.5,0.3-1,0.9-1.6s1-0.9,1.3-0.9c0.2,0,0.4,0.3,0.7,0.8
			c0.3,0.7,0.7,1.3,1,1.6c0.6,0.6,1.4,0.8,2.4,0.8c0.5,0,1-0.3,1.4-0.8c0.5-0.6,0.8-1.3,0.9-2.2c0.2,1,0.6,1.7,1.2,2.3
			c0.6,0.4,1.2,0.7,1.9,0.7l0,0c1.1,0,2.1-0.4,3.1-1.3c0.2-0.2,0.7-0.7,1.5-1.6c0.1-0.1,0.2-0.2,0.4-0.2l0.1,0.1
			c0,0.7,0.2,1.3,0.4,1.7c0.4,0.6,1.1,0.9,2.1,0.9c1.4,0,2.4-0.7,3.3-2.2c0.6,1,1.2,1.5,1.8,1.5C142.5,52.1,143.2,51.7,143.7,50.8z
			 M120.4,55.8c0.4,0.2,0.6,0.4,0.6,0.6c0,0.2-0.2,0.2-0.5,0.2c-0.8,0-1.4-0.3-1.7-0.9C119.6,55.7,120.1,55.7,120.4,55.8z"/>
		<path class="st0" d="M107.4,48.6c-0.4-0.4-1-0.6-1.6-0.6c-2.2,0-4.6,1.5-7.4,4.4c-1.9,2-2.9,3.1-3,3.2c-1.1,1-2.1,1.6-3,1.6
			c-0.5,0-1-0.2-1.3-0.6c-0.3-0.4-0.4-0.9-0.4-1.5c0-0.8,0.3-1.9,0.8-3.3c0.1-0.4,0.3-0.7,0.4-1c0.3,0.3,0.7,0.4,1.1,0.6
			c0.3,0.1,0.9,0.1,1.7,0.1l0,0l0,0l0,0l0,0c0.7,0,1.4-0.3,2-0.8c0.3-0.2,0.7-0.7,1.3-1.5c0.5-0.6,0.8-0.9,1.1-0.9
			c0,0.3-0.1,0.7-0.3,1.3c-0.1,0.3-0.2,0.5-0.2,0.6l0.1,0.1c0.1,0,0.2-0.1,0.4-0.4c0.6-1,0.9-2,0.9-2.8c0-0.6-0.2-1-0.7-1
			c-0.2,0-0.5,0.3-1.1,0.8c-0.8,0.7-1.3,1.2-1.6,1.5c-0.7,0.5-1.4,0.8-1.9,0.8c-0.7,0-1.3-0.1-1.7-0.3c-0.4-0.2-0.9-0.6-1.3-1.2
			c-0.3-0.5-0.6-1-0.9-1.4c-0.4-0.5-0.7-0.8-1.2-0.8c-0.6,0-1.2,0.3-1.9,1C87,47.2,86.5,48,86,48.9c-0.5,1.1-1,2.3-1.6,3.4
			c-0.5,0.9-1.1,1.4-1.7,1.4c-1.5,0-2.3-1.6-2.3-4.9c0-0.6,0-1.3,0.1-2.2c0.5,0,0.8-0.6,1-1.7v-0.1l0,0l-0.1,0.1
			c-0.2,0.5-0.5,0.7-0.7,0.7c-0.3,0-0.5-0.3-0.5-0.9c0-0.5,0.2-1.3,0.6-2.4c0.1-0.3,0.1-0.4,0.1-0.5l0,0c0,0-0.1,0.1-0.3,0.4
			c-0.6,1.1-0.9,2.2-0.9,3.2c0,0.6,0.1,0.9,0.4,1.1c-0.2,0.9-0.4,2-0.4,3.3s0.3,2.5,0.8,3.7c0.6,1.3,1.3,2,2.2,2
			c0.6,0,1.1-0.4,1.6-1.1c0.3-0.5,0.7-1.3,1.2-2.4c0.4-1.1,0.7-1.8,0.9-2.1c1-1.5,1.9-2.2,2.7-2.2c0.3,0,0.6,0.2,0.8,0.7
			c0.3,0.5,0.6,1,0.9,1.6c0.1,0.2,0.3,0.4,0.5,0.6c-0.9,1.9-1.4,3.5-1.4,4.8c0,1,0.3,1.9,0.9,2.6c0.6,0.7,1.3,1,2,1
			c0.9,0,1.9-0.5,2.9-1.6c1.2-1.3,2.4-2.6,3.6-3.9c2.1-2.2,4-3.2,5.7-3.2c0.9,0,1.6,0.4,2,1.2c0.1,0.2,0.2,0.3,0.2,0.3
			s0.1-0.1,0.2-0.3c0.2-0.5,0.3-1,0.3-1.6C108.1,49.4,107.8,49,107.4,48.6z"/>
		<path class="st0" d="M242.9,40.6c0.6,0.4,1.2,0.8,1.8,1.2c0.1,0.1,0.1,0,0.2-0.1c0.2-0.3,0.4-0.7,0.6-1.2c0.6,0.4,1.2,0.8,1.7,1.2
			l0.2-0.1c0.5-0.8,0.8-1.4,0.8-1.6c0-0.1-0.3-0.3-0.9-0.7c-0.6-0.4-0.9-0.6-1-0.6l-0.1,0.1l-0.6,1.2c-0.2-0.2-0.5-0.4-1-0.7
			s-0.8-0.5-0.8-0.5l-0.1,0.1l-0.7,1.5L242.9,40.6L242.9,40.6z"/>
		<path class="st0" d="M245.5,38.9c0.5-0.8,0.8-1.4,0.8-1.6c0-0.1-0.3-0.3-0.9-0.7c-0.6-0.4-0.9-0.6-1-0.6l-0.1,0.1l-0.7,1.5v0.1
			C244.2,38.1,244.8,38.5,245.5,38.9C245.4,39,245.4,39,245.5,38.9z"/>
		<path class="st0" d="M191.3,45.8c0.5-0.8,0.8-1.4,0.8-1.6c0-0.1-0.3-0.3-0.9-0.7c-0.6-0.4-0.9-0.6-1-0.6l-0.1,0.1l-0.7,1.5v0.1
			C190,45,190.6,45.4,191.3,45.8C191.2,46,191.3,45.9,191.3,45.8z"/>
		<path class="st0" d="M119.9,36.9c0.6,0.4,1.2,0.8,1.8,1.2c0.1,0.1,0.1,0,0.2-0.1c0.2-0.3,0.4-0.7,0.6-1.2c0.6,0.4,1.2,0.8,1.7,1.2
			l0.2-0.1c0.5-0.8,0.8-1.4,0.8-1.6c0-0.1-0.3-0.3-0.9-0.7s-0.9-0.6-1-0.6l-0.1,0.1l-0.6,1.2c-0.2-0.2-0.5-0.4-1-0.7
			s-0.8-0.5-0.8-0.5l-0.1,0.1l-0.7,1.5L119.9,36.9L119.9,36.9z"/>
		<path class="st0" d="M115.6,41c0.5-0.8,0.8-1.4,0.8-1.6c0-0.1-0.3-0.3-0.9-0.7s-0.9-0.6-1-0.6l-0.1,0.1l-0.7,1.5v0.1
			C114.3,40.2,114.9,40.6,115.6,41C115.5,41.1,115.6,41.1,115.6,41z"/>
		<path class="st0" d="M115,43.9c0.2-0.3,0.4-0.7,0.6-1.2c0.6,0.4,1.2,0.8,1.7,1.2l0.2-0.1c0.5-0.8,0.8-1.4,0.8-1.6
			c0-0.1-0.3-0.3-0.9-0.7s-0.9-0.6-1-0.6l-0.1,0.1l-0.6,1.2c-0.2-0.2-0.5-0.4-1-0.7s-0.8-0.5-0.8-0.5l-0.1,0.1l-0.7,1.5v0.1
			C113.7,43.1,114.3,43.5,115,43.9C114.9,44,115,44,115,43.9z"/>
		<path class="st0" d="M104.5,55.8c-0.6-0.4-0.9-0.6-1-0.6l-0.1,0.1l-0.6,1.2c-0.2-0.2-0.5-0.4-1-0.7s-0.8-0.5-0.8-0.5l-0.1,0.1
			l-0.7,1.5V57c0.6,0.4,1.2,0.8,1.8,1.2c0.1,0.1,0.1,0,0.2-0.1c0.2-0.3,0.4-0.7,0.6-1.2c0.6,0.4,1.2,0.8,1.7,1.2l0.2-0.1
			c0.5-0.8,0.8-1.4,0.8-1.6C105.4,56.4,105.1,56.2,104.5,55.8z"/>
		<path class="st0" d="M214,48.4c0.2-0.3,0.4-0.7,0.6-1.2c0.6,0.4,1.2,0.8,1.7,1.2l0.2-0.1c0.5-0.8,0.8-1.4,0.8-1.6
			c0-0.1-0.3-0.3-0.9-0.7c-0.6-0.4-0.9-0.6-1-0.6l-0.1,0.1l-0.6,1.2c-0.2-0.2-0.5-0.4-1-0.7s-0.8-0.5-0.8-0.5l-0.1,0.1l-0.7,1.5v0.1
			c0.6,0.4,1.2,0.8,1.8,1.2C213.8,48.5,213.9,48.5,214,48.4z"/>
		<path class="st0" d="M231.6,36.8c-3.1,1.2-6.1,2.3-9,3.3c-0.2,0.4-0.3,0.7-0.4,1c3.5-1.4,6.6-2.6,9.2-3.6c0.1-0.1,0.2-0.3,0.3-0.6
			c0-0.1,0.1-0.2,0-0.2C231.8,36.7,231.7,36.7,231.6,36.8z"/>
		<path class="st0" d="M250.6,31.8c0-0.1,0.1-0.2,0-0.2c0,0-0.1,0-0.2,0c-3.1,1.2-6.1,2.3-9,3.3c-0.2,0.4-0.3,0.7-0.4,1
			c3.5-1.4,6.6-2.6,9.2-3.6C250.4,32.3,250.5,32.1,250.6,31.8z"/>
		<path class="st0" d="M236.4,40.4c0,0-0.2,0.1-0.3,0.4c-0.2,0.3-0.3,0.5-0.3,0.5c0,0.1,0.1,0.3,0.3,0.5s0.4,0.3,0.5,0.3
			s0.2,0,0.2-0.1l0.2-0.1c0.1,0,0.3,0.4,0.6,1.1c0.3,0.7,0.4,1.2,0.4,1.5c0,0.2,0,0.2,0.1,0.2s0.2-0.1,0.2-0.3
			c0.1-0.3,0.3-0.7,0.4-1.3c0.3-1.4,0.5-2.1,0.8-2.1c0.1,0,0.3,0.1,0.4,0.2c0.1,0.2,0.2,0.2,0.2,0.2c0.1,0,0.2-0.1,0.2-0.3
			c0.1-0.2,0.1-0.3,0.1-0.4c0-0.1-0.1-0.3-0.2-0.5c-0.2-0.2-0.3-0.4-0.5-0.4c-0.3,0-0.7,0.3-0.9,1c-0.3,1-0.4,1.7-0.5,2.2l-0.1,0.1
			l0,0V43c-0.1-0.8-0.4-1.5-0.7-2C237.3,40.6,236.9,40.4,236.4,40.4z"/>
		<path class="st0" d="M244.8,53.7c-3.1,1.2-6.1,2.3-9,3.3c-0.2,0.4-0.3,0.7-0.4,1c3.5-1.4,6.6-2.6,9.2-3.6c0.1-0.1,0.2-0.3,0.3-0.6
			c0-0.1,0.1-0.2,0-0.2C245,53.7,244.9,53.7,244.8,53.7z"/>
		<path class="st0" d="M220.2,57.4c-0.2,0.5-0.5,0.7-0.7,0.7c-0.3,0-0.5-0.3-0.5-0.9c0-0.5,0.2-1.3,0.6-2.4c0.1-0.3,0.1-0.4,0.1-0.5
			l0,0c0,0-0.1,0.1-0.3,0.4c-0.6,1.1-0.9,2.2-0.9,3.2c0,0.8,0.2,1.2,0.7,1.2S220,58.5,220.2,57.4L220.2,57.4L220.2,57.4L220.2,57.4z
			"/>
		<path class="st0" d="M200.3,42.5c0.5-0.8,0.8-1.4,0.8-1.6c0-0.1-0.3-0.3-0.9-0.7c-0.6-0.4-0.9-0.6-1-0.6l-0.1,0.1l-0.7,1.5v0.2
			c0.6,0.4,1.2,0.8,1.8,1.2C200.2,42.7,200.3,42.6,200.3,42.5z"/>
		<path class="st0" d="M202.4,57.4c-0.2,0.5-0.5,0.7-0.7,0.7c-0.3,0-0.5-0.3-0.5-0.9c0-0.5,0.2-1.3,0.6-2.4c0.1-0.3,0.1-0.4,0.1-0.5
			l0,0c0,0-0.1,0.1-0.3,0.4c-0.6,1.1-0.9,2.2-0.9,3.2c0,0.8,0.2,1.2,0.7,1.2S202.2,58.5,202.4,57.4L202.4,57.4L202.4,57.4
			L202.4,57.4z"/>
		<path class="st0" d="M187.1,57.4c-0.2,0.5-0.5,0.7-0.7,0.7c-0.3,0-0.5-0.3-0.5-0.9c0-0.5,0.2-1.3,0.6-2.4c0.1-0.3,0.1-0.4,0.1-0.5
			l0,0c0,0-0.1,0.1-0.3,0.4c-0.6,1.1-0.9,2.2-0.9,3.2c0,0.8,0.2,1.2,0.7,1.2S186.9,58.5,187.1,57.4L187.1,57.4L187.1,57.4
			L187.1,57.4z"/>
		<path class="st0" d="M199.6,38.2c1.2-0.4,1.9-0.7,2-0.8c0.6-0.3,1.2-0.6,1.9-1.1c0.6-0.4,1.1-0.9,1.5-1.5c0.3,0.2,0.6,0.4,0.6,0.5
			c0.3-0.5,0.5-0.8,0.5-1c-0.1-0.1-0.3-0.3-0.7-0.5c0.2-0.5,0.3-1,0.3-1.4s-0.1-0.7-0.4-0.8c-0.3-0.1-0.7,0-1.1,0.4
			c-0.4,0.4-0.7,0.8-0.7,1.3c0,0.4,0.4,0.8,1.1,1.1c-0.5,0.6-1.3,1.2-2.4,1.8c-0.9,0.5-1.8,1.1-2.7,1.6c-0.2,0.1-0.3,0.2-0.3,0.3
			l0,0C199.3,38.3,199.4,38.2,199.6,38.2z M204.2,32.9c0-0.1,0.1-0.2,0.2-0.2c0.1-0.1,0.3-0.1,0.3-0.1c0.2,0,0.3,0.1,0.3,0.4
			c0,0.2,0,0.4,0,0.7C204.5,33.3,204.2,33.1,204.2,32.9z"/>
		<path class="st0" d="M190,41.7c1.2-0.4,1.9-0.7,2-0.8c0.6-0.3,1.2-0.6,1.9-1.1c0.6-0.4,1.1-0.9,1.5-1.5c0.3,0.2,0.6,0.4,0.6,0.5
			c0.3-0.5,0.5-0.8,0.5-1c-0.1-0.1-0.3-0.3-0.7-0.5c0.2-0.5,0.2-1,0.2-1.4s-0.1-0.7-0.4-0.8c-0.3-0.1-0.7,0-1.1,0.4
			c-0.4,0.4-0.7,0.8-0.7,1.3c0,0.4,0.4,0.8,1.1,1.1c-0.5,0.6-1.3,1.2-2.4,1.8c-0.9,0.5-1.8,1.1-2.7,1.6c-0.2,0.1-0.3,0.2-0.3,0.3
			l0,0C189.7,41.8,189.8,41.8,190,41.7z M194.6,36.4c0-0.1,0.1-0.2,0.2-0.2c0.1-0.1,0.3-0.1,0.3-0.1c0.2,0,0.3,0.1,0.3,0.4
			c0,0.2,0,0.4,0,0.7C194.9,36.8,194.6,36.6,194.6,36.4z"/>
		<path class="st0" d="M177.4,40.2c3.5-1.4,6.6-2.6,9.2-3.6c0.1-0.1,0.2-0.3,0.3-0.6c0-0.1,0.1-0.2,0-0.2c0,0-0.1,0-0.2,0
			c-3.1,1.2-6.1,2.3-9,3.3C177.6,39.6,177.5,39.9,177.4,40.2z"/>
		<path class="st0" d="M181.6,33.5c0.2,0.2,0.4,0.3,0.5,0.3s0.2,0,0.2-0.1l0.2-0.1c0.1,0,0.3,0.4,0.6,1.1c0.3,0.7,0.4,1.2,0.4,1.5
			c0,0.2,0,0.2,0.1,0.2s0.2-0.1,0.2-0.3c0.1-0.3,0.3-0.7,0.4-1.3c0.3-1.4,0.5-2.1,0.8-2.1c0.1,0,0.3,0.1,0.4,0.2
			c0.1,0.2,0.2,0.2,0.3,0.2s0.2-0.1,0.2-0.3c0.1-0.2,0.1-0.3,0.1-0.4c0-0.1-0.1-0.3-0.2-0.5c-0.2-0.2-0.3-0.4-0.5-0.4
			c-0.3,0-0.7,0.3-0.9,1c-0.3,1-0.4,1.7-0.5,2.2l-0.1,0.1l0,0v-0.1c-0.1-0.8-0.4-1.5-0.7-2s-0.7-0.8-1.1-0.8c0,0-0.2,0.1-0.3,0.4
			c-0.2,0.3-0.3,0.5-0.3,0.5C181.3,33.2,181.4,33.3,181.6,33.5z"/>
		<path class="st0" d="M173.4,37c0-0.1,0.1-0.2,0-0.2c0,0-0.1,0-0.2,0c-3.1,1.2-6.1,2.3-9,3.3c-0.2,0.4-0.3,0.7-0.4,1
			c3.5-1.4,6.6-2.6,9.2-3.6C173.1,37.5,173.2,37.3,173.4,37z"/>
		<path class="st0" d="M168.3,43.7c0.2,0.2,0.3,0.3,0.5,0.3c0.5,0,0.9-0.4,1.1-1.1c0.2,0.6,0.5,0.9,0.9,0.9c0.3,0,0.5-0.2,0.7-0.6
			c0.1-0.3,0.2-0.6,0.2-0.9c0-0.2-0.1-0.4-0.2-0.7c-0.2-0.5-0.3-0.8-0.3-0.8c0-0.1-0.1-0.3-0.1-0.5s0-0.2-0.1-0.2
			c0,0-0.1,0.1-0.2,0.2c-0.1,0.2-0.2,0.4-0.2,0.6c0,0.4,0.2,1,0.6,1.7c-0.1,0.2-0.2,0.3-0.4,0.3c-0.5,0-0.7-0.3-0.7-1
			c0-0.2-0.1-0.6-0.2-1c-0.1-0.5-0.2-0.7-0.3-0.7c0,0-0.1,0.1-0.2,0.2c-0.1,0.2-0.1,0.3-0.1,0.4c0,0.1,0,0.3,0.1,0.6
			s0.1,0.6,0.1,0.7c0,0.2-0.1,0.5-0.3,0.7s-0.4,0.3-0.6,0.3c-0.2,0-0.3-0.1-0.4-0.4c-0.1-0.2-0.1-0.4-0.1-0.6c0-0.1,0-0.2,0.1-0.4
			c0-0.1,0.1-0.3,0.1-0.5c0-0.4-0.1-0.6-0.2-0.6c-0.1,0-0.2,0.1-0.4,0.3s-0.3,0.4-0.3,0.6c0,0.1,0.1,0.2,0.2,0.2l0.2,0.2v0.9
			C168.1,43.2,168.2,43.5,168.3,43.7z"/>
		<path class="st0" d="M172.3,57.4c-0.3,0.5-0.5,0.7-0.7,0.7c-0.3,0-0.5-0.3-0.5-0.9c0-0.5,0.2-1.3,0.6-2.4c0.1-0.3,0.1-0.4,0.1-0.5
			l0,0c0,0-0.1,0.1-0.3,0.4c-0.6,1.1-0.9,2.2-0.9,3.2c0,0.8,0.2,1.2,0.7,1.2S172.1,58.5,172.3,57.4L172.3,57.4L172.3,57.4
			L172.3,57.4z"/>
		<path class="st0" d="M173.5,47.2c0.5,0,0.8-0.6,1-1.7v-0.1l0,0l-0.1,0.1c-0.2,0.5-0.5,0.7-0.7,0.7c-0.3,0-0.5-0.3-0.5-0.9
			c0-0.5,0.2-1.3,0.6-2.4c0.1-0.3,0.1-0.4,0.1-0.5l0,0c0,0-0.1,0.1-0.3,0.4c-0.6,1.1-0.9,2.2-0.9,3.2
			C172.7,46.8,173,47.2,173.5,47.2z"/>
		<path class="st0" d="M158.6,48c0.2-0.3,0.4-0.7,0.6-1.2c0.6,0.4,1.2,0.8,1.7,1.2l0.2-0.1c0.5-0.8,0.8-1.4,0.8-1.6
			c0-0.1-0.3-0.3-0.9-0.7c-0.6-0.4-0.9-0.6-1-0.6l-0.1,0.1l-0.6,1.2c-0.2-0.2-0.5-0.4-1-0.7s-0.8-0.5-0.8-0.5l-0.1,0.1l-0.7,1.5v0.1
			c0.6,0.4,1.2,0.8,1.8,1.2C158.5,48.1,158.5,48.1,158.6,48z"/>
		<path class="st0" d="M157.9,33.5c0.2,0.2,0.4,0.3,0.5,0.3s0.2,0,0.2-0.1l0.2-0.1c0.1,0,0.3,0.4,0.6,1.1c0.3,0.7,0.4,1.2,0.4,1.5
			c0,0.2,0,0.2,0.1,0.2s0.2-0.1,0.2-0.3c0.1-0.3,0.3-0.7,0.4-1.3c0.3-1.4,0.5-2.1,0.8-2.1c0.1,0,0.3,0.1,0.4,0.2
			c0.1,0.2,0.2,0.2,0.2,0.2c0.1,0,0.2-0.1,0.2-0.3c0.1-0.2,0.1-0.3,0.1-0.4c0-0.1-0.1-0.3-0.2-0.5c-0.2-0.2-0.3-0.4-0.5-0.4
			c-0.3,0-0.7,0.3-0.9,1c-0.3,1-0.4,1.7-0.5,2.2l-0.1,0.1l0,0v-0.1c-0.1-0.8-0.4-1.5-0.7-2s-0.7-0.8-1.1-0.8c0,0-0.2,0.1-0.3,0.4
			c-0.2,0.3-0.3,0.5-0.3,0.5C157.6,33.2,157.7,33.3,157.9,33.5z"/>
		<path class="st0" d="M84.2,41.7L84.2,41.7l-0.9,1.7v0.1c0.6,0.4,1.2,0.8,1.8,1.2c0.1,0.1,0.1,0,0.2-0.1c0.2-0.3,0.4-0.7,0.6-1.2
			c0.6,0.4,1.2,0.8,1.7,1.2l0.2-0.1c0.5-0.8,0.8-1.4,0.8-1.6c0-0.1-0.3-0.3-0.9-0.7s-0.9-0.6-1-0.6l-0.1,0.1L86,42.9
			c-0.2-0.2-0.5-0.4-1-0.7S84.3,41.7,84.2,41.7z"/>
		<path class="st0" d="M142.7,38c0.5,0,0.8-0.6,1-1.7v-0.1l0,0l-0.1,0.1c-0.2,0.5-0.5,0.7-0.7,0.7c-0.3,0-0.5-0.3-0.5-0.9
			c0-0.5,0.2-1.3,0.6-2.4c0.1-0.3,0.1-0.4,0.1-0.5l0,0c0,0-0.1,0.1-0.3,0.4c-0.6,1.1-0.9,2.2-0.9,3.2C141.9,37.6,142.2,38,142.7,38z
			"/>
		<path class="st0" d="M139.4,54.2c-0.3,0-0.7,0.3-0.9,1c-0.3,1-0.4,1.7-0.5,2.2l-0.1,0.1l0,0v-0.1c-0.1-0.8-0.4-1.5-0.7-2
			s-0.7-0.8-1.1-0.8c0,0-0.2,0.1-0.3,0.4c-0.2,0.3-0.3,0.5-0.3,0.5c0,0.1,0.1,0.3,0.3,0.5s0.4,0.3,0.5,0.3s0.2,0,0.2-0.1l0.2-0.1
			c0.1,0,0.3,0.4,0.6,1.1c0.3,0.7,0.4,1.2,0.4,1.5c0,0.2,0,0.2,0.1,0.2s0.2-0.1,0.2-0.3c0.1-0.3,0.3-0.7,0.4-1.3
			c0.3-1.4,0.5-2.1,0.8-2.1c0.1,0,0.3,0.1,0.4,0.2c0.1,0.2,0.2,0.2,0.2,0.2c0.1,0,0.2-0.1,0.2-0.3c0.1-0.2,0.1-0.3,0.1-0.4
			c0-0.1-0.1-0.3-0.2-0.5C139.8,54.3,139.6,54.2,139.4,54.2z"/>
		<path class="st0" d="M131.2,40.6c0,0,0.1,0.1,0.3,0c0.4,0,0.6,0,0.6,0c1.1,0,1.7,0.1,1.7,0.2v0.1c-0.1,0.1-0.5,0.3-1.1,0.6
			c-0.7,0.3-1.1,0.6-1.2,0.7c-0.1,0.1-0.2,0.2-0.2,0.2s0.1,0,0.3-0.1c1.1-0.3,1.8-0.5,2-0.7c0.3-0.2,0.6-0.6,1-1.1
			c0.3-0.4,0.5-0.7,0.5-0.8c0-0.3-0.6-0.5-1.9-0.5c-0.4,0-0.7,0-0.8,0c-0.3,0.1-0.5,0.2-0.6,0.4l-0.4,0.7
			C131.2,40.5,131.2,40.6,131.2,40.6z"/>
		<path class="st0" d="M138.5,42.2L138.5,42.2c0,0-0.1,0.1-0.3,0.4c-0.6,1.1-0.9,2.2-0.9,3.2c0,0.8,0.2,1.2,0.7,1.2s0.8-0.6,1-1.7
			v-0.1l0,0l-0.1,0.1c-0.2,0.5-0.5,0.7-0.7,0.7c-0.3,0-0.5-0.3-0.5-0.9c0-0.5,0.2-1.3,0.6-2.4C138.5,42.4,138.5,42.2,138.5,42.2z"/>
		<path class="st0" d="M127.2,33.5c0.2,0.2,0.4,0.3,0.5,0.3s0.2,0,0.2-0.1l0.2-0.1c0.1,0,0.3,0.4,0.6,1.1c0.3,0.7,0.4,1.2,0.4,1.5
			c0,0.2,0,0.2,0.1,0.2s0.2-0.1,0.3-0.3c0.1-0.3,0.3-0.7,0.4-1.3c0.3-1.4,0.5-2.1,0.8-2.1c0.1,0,0.3,0.1,0.4,0.2
			c0.1,0.2,0.2,0.2,0.2,0.2c0.1,0,0.2-0.1,0.2-0.3c0.1-0.2,0.1-0.3,0.1-0.4c0-0.1-0.1-0.3-0.2-0.5c-0.2-0.2-0.3-0.4-0.5-0.4
			c-0.3,0-0.7,0.3-0.9,1c-0.3,1-0.4,1.7-0.5,2.2l-0.1,0.1l0,0v-0.1c-0.1-0.8-0.4-1.5-0.7-2s-0.7-0.8-1.1-0.8c0,0-0.2,0.1-0.3,0.4
			c-0.2,0.3-0.3,0.5-0.3,0.5C126.9,33.1,127,33.3,127.2,33.5z"/>
		<path class="st0" d="M110.9,38.4c3.5-1.4,6.6-2.6,9.2-3.6c0.1-0.1,0.2-0.3,0.3-0.6c0-0.1,0.1-0.2,0-0.2c0,0-0.1,0-0.2,0
			c-2.3,0.8-4.5,1.7-6.6,2.5c0,0,0.1-0.1,0.1-0.2c0.1-0.3,0.3-0.7,0.4-1.4c0.3-1.5,0.5-2.2,0.8-2.2c0.1,0,0.3,0.1,0.4,0.3
			s0.2,0.3,0.2,0.3c0.1,0,0.2-0.1,0.2-0.3c0.1-0.2,0.1-0.3,0.1-0.4c0-0.1-0.1-0.3-0.2-0.5c-0.2-0.2-0.3-0.4-0.5-0.4
			c-0.3,0-0.7,0.4-0.9,1.1c-0.3,1-0.4,1.8-0.5,2.3l-0.1,0.2l0,0v-0.2c-0.1-0.8-0.4-1.5-0.7-2.1c-0.3-0.5-0.7-0.8-1.1-0.8
			c0,0-0.2,0.2-0.3,0.5c-0.2,0.3-0.3,0.5-0.3,0.5c0,0.1,0.1,0.3,0.3,0.5c0.2,0.2,0.4,0.3,0.5,0.3s0.2,0,0.2-0.1l0.2-0.1
			c0.1,0,0.3,0.4,0.6,1.1c0.3,0.8,0.4,1.3,0.4,1.5c0,0.1,0,0.2,0,0.2c-0.7,0.3-1.4,0.5-2.1,0.8C111.1,37.7,111,38.1,110.9,38.4z"/>
		<path class="st0" d="M101,41.4c0.2,0.2,0.4,0.3,0.5,0.3s0.2,0,0.2-0.1l0.2-0.1c0.1,0,0.3,0.4,0.6,1.1c0.3,0.7,0.4,1.2,0.4,1.5
			c0,0.2,0,0.2,0.1,0.2s0.2-0.1,0.2-0.3c0.1-0.3,0.3-0.7,0.4-1.3c0.3-1.4,0.5-2.1,0.8-2.1c0.1,0,0.3,0.1,0.4,0.2
			c0.1,0.2,0.2,0.2,0.3,0.2c0.1,0,0.2-0.1,0.2-0.3c0.1-0.2,0.1-0.3,0.1-0.4c0-0.1-0.1-0.3-0.2-0.5c-0.2-0.2-0.3-0.4-0.5-0.4
			c-0.3,0-0.7,0.3-0.9,1c-0.3,1-0.4,1.7-0.5,2.2l-0.1,0.1l0,0v-0.1c-0.1-0.8-0.4-1.5-0.7-2c-0.3-0.5-0.7-0.8-1.1-0.8
			c0,0-0.2,0.1-0.3,0.4c-0.2,0.3-0.3,0.5-0.3,0.5C100.7,41,100.8,41.2,101,41.4z"/>
		<path class="st0" d="M98.8,31.8c0-0.1,0.1-0.2,0-0.2c0,0-0.1,0-0.2,0c-3.1,1.2-6.1,2.3-9,3.3c-0.2,0.4-0.3,0.7-0.4,1
			c3.5-1.4,6.6-2.6,9.2-3.6C98.6,32.3,98.7,32.1,98.8,31.8z"/>
		<path class="st0" d="M91.7,40.8c0.2,0.2,0.3,0.3,0.5,0.3c0.5,0,0.9-0.4,1.1-1.1c0.2,0.6,0.5,0.9,0.9,0.9c0.3,0,0.5-0.2,0.7-0.6
			c0.1-0.3,0.2-0.6,0.2-0.9c0-0.2-0.1-0.4-0.2-0.7c-0.2-0.5-0.3-0.8-0.3-0.8c0-0.1-0.1-0.3-0.1-0.5s0-0.2-0.1-0.2
			c0,0-0.1,0.1-0.2,0.2C94.1,37.6,94,37.8,94,38c0,0.4,0.2,1,0.6,1.7c-0.1,0.2-0.2,0.3-0.4,0.3c-0.5,0-0.7-0.3-0.7-1
			c0-0.2-0.1-0.6-0.2-1c-0.1-0.5-0.2-0.7-0.3-0.7c0,0-0.1,0.1-0.2,0.2c-0.1,0.2-0.1,0.3-0.1,0.4c0,0.1,0,0.3,0.1,0.6
			s0.1,0.6,0.1,0.7c0,0.2-0.1,0.5-0.3,0.7c-0.2,0.2-0.4,0.3-0.6,0.3s-0.3-0.1-0.4-0.4c-0.1-0.2-0.1-0.4-0.1-0.6c0-0.1,0-0.2,0.1-0.4
			c0-0.1,0.1-0.3,0.1-0.5c0-0.4-0.1-0.6-0.2-0.6s-0.2,0.1-0.4,0.3c-0.2,0.2-0.3,0.4-0.3,0.6c0,0.1,0.1,0.2,0.2,0.2l0.2,0.2v0.9
			C91.4,40.3,91.5,40.6,91.7,40.8z"/>
		<path class="st0" d="M88.7,56.3C88.5,56.8,88.2,57,88,57c-0.3,0-0.5-0.3-0.5-0.9c0-0.5,0.2-1.3,0.6-2.4c0.1-0.3,0.1-0.4,0.1-0.5
			l0,0c0,0-0.1,0.1-0.3,0.4c-0.6,1.1-0.9,2.2-0.9,3.2c0,0.8,0.2,1.2,0.7,1.2S88.5,57.4,88.7,56.3L88.7,56.3L88.7,56.3L88.7,56.3z"/>
		<path class="st0" d="M89.4,41.3c0.5,0,0.8-0.6,1-1.7v-0.1l0,0l-0.1,0.1c-0.3,0.5-0.5,0.8-0.7,0.8c-0.3,0-0.5-0.3-0.5-0.9
			c0-0.5,0.2-1.3,0.6-2.4c0.1-0.3,0.1-0.4,0.1-0.5l0,0c0,0-0.1,0.1-0.3,0.4c-0.6,1.1-0.9,2.2-0.9,3.2C88.7,40.9,88.9,41.3,89.4,41.3
			z"/>
		<path class="st0" d="M80.6,33.5c0.2,0.2,0.4,0.3,0.5,0.3s0.2,0,0.2-0.1l0.2-0.1c0.1,0,0.3,0.4,0.6,1.1c0.3,0.7,0.4,1.2,0.4,1.5
			c0,0,0,0,0,0.1c-0.4,0.1-0.6,0.6-0.7,1.4c0,0.2,0,0.2,0,0.2s0.1-0.1,0.3-0.3c0.2-0.2,0.3-0.3,0.4-0.3c0.2,0,0.4,0.1,0.5,0.3
			c-0.5,0.1-0.8,0.3-0.9,0.4c-0.3,0.3-0.5,0.7-0.5,1.4c0,0.2,0.1,0.9,0.4,2.1c0.3,1.2,0.4,2.3,0.4,3.2c0,0.5,0,0.8,0.1,0.8
			c0,0,0.1-0.1,0.1-0.2c0.1-0.5,0.1-0.9,0.1-1.4c0-1.5-0.3-3.1-0.8-4.6c0.2-0.2,0.5-0.4,1-0.5c0.4-0.1,0.7-0.2,1.1-0.3
			c0,0,0.1-0.1,0.2-0.4c0.1-0.3,0.2-0.4,0.2-0.5c0-0.2-0.3-0.5-0.7-0.8c-0.4-0.3-0.6-0.4-0.9-0.5c0,0,0,0,0-0.1
			c0.1-0.3,0.3-0.7,0.4-1.3c0.3-1.4,0.5-2.1,0.8-2.1c0.1,0,0.3,0.1,0.4,0.2c0.1,0.2,0.2,0.2,0.2,0.2c0.1,0,0.2-0.1,0.2-0.3
			c0.1-0.2,0.1-0.3,0.1-0.4c0-0.1-0.1-0.3-0.2-0.5c-0.2-0.2-0.3-0.4-0.5-0.4c-0.3,0-0.7,0.3-0.9,1c-0.3,1-0.4,1.7-0.5,2.2l-0.1,0.1
			l0,0v-0.1c-0.1-0.8-0.4-1.5-0.7-2c-0.3-0.5-0.7-0.8-1.1-0.8c0,0-0.2,0.1-0.3,0.4c-0.2,0.3-0.3,0.5-0.3,0.5
			C80.3,33.1,80.4,33.3,80.6,33.5z"/>
		<path class="st0" d="M114.2,47.3L114.2,47.3c0,0-0.1,0.1-0.3,0.4c-0.6,1.1-0.9,2.2-0.9,3.2c0,0.8,0.2,1.2,0.7,1.2s0.8-0.6,1-1.7
			v-0.1l0,0l-0.1,0.1c-0.2,0.5-0.5,0.7-0.7,0.7c-0.3,0-0.5-0.3-0.5-0.9c0-0.5,0.2-1.3,0.6-2.4C114.2,47.5,114.2,47.4,114.2,47.3z"/>
	</g>
	<g>
		<g>
			<polygon class="st0" points="24.8,59.5 24.8,59.5 29.3,59.5 36,54.5 31,54.5 			"/>
			<polygon class="st0" points="38.2,22.3 28.4,16.5 28.4,27.6 38.2,33.4 48,27.6 48,16.5 			"/>
			<polygon class="st0" points="38.2,21.3 47.6,15.9 38.2,10.5 28.8,15.9 			"/>
			
				<rect x="36.9" y="39.9" transform="matrix(0.7071 -0.7071 0.7071 0.7071 -17.9621 39.106)" class="st1" width="2.6" height="2.6"/>
			
				<rect x="36.9" y="35.4" transform="matrix(0.7071 -0.7071 0.7071 0.7071 -14.741 37.7272)" class="st1" width="2.6" height="2.6"/>
		</g>
		<path class="st0" d="M43.4,48.7L42.2,48l-1.5-0.9l-2.4,1.4l0.5,0.4c0.1,0.1,0.1,0.3,0,0.3l-3,1.9c-0.1,0.1-0.3,0.1-0.4,0l-3.1-2
			c-0.1-0.1-0.1-0.2,0-0.3l3.1-2c0.1,0,0.1,0,0.2,0l0.1,0.1l2.4-1.4l-0.4-0.3l-1.5-1c-0.1-0.1-0.2-0.1-0.4-0.2h-0.1
			c-0.3-0.1-0.7,0-0.9,0.2l-2.3,1.5l-3.3,2l-1.7,1c-0.2,0.1-0.2,0.3,0,0.4L29,50l1.3,0.8H29h-4v-2.5V47v-3.2l8.8-5.2l0,0l0,0v-4.2
			l0,0l0,0L25,29.2v-15l12.5-7.4V2.3L21.1,12v2.1v2.4V27v4.4l0,0l8.8,5.2l-8.8,5.2v0.9v2.9H1.8l0,0c0,7.6,6.2,13.8,13.8,13.8h0.1
			v-5.2c0-0.2,0.1-0.3,0.3-0.3h5.2H29h8v-0.6l5.2-3.2l1.3-0.8C43.6,49.1,43.6,48.9,43.4,48.7z M21.2,51L21.2,51h-2.6l0,0h-3.2
			c-1.4,0-2.6,1.2-2.6,2.6v2.5c-3.7-1-6.7-3.9-7.7-7.6h13.5l0,0h1.9l0,0h0.7C21.2,48.5,21.2,51,21.2,51z"/>
		<path class="st1" d="M55.2,45.7v-2.9v-0.9l-8.8-5.2l8.8-5.2v-0.1V27V16.5v-2.4V12L38.9,2.3v4.5l12.5,7.4v15l-8.8,5.2l0,0l0,0v4.5
			l0,0l0,0l8.8,5.2v4.5h0.8h3h0.7l0,0h1.9l0,0h13.5c-1,3.7-4,6.6-7.7,7.6v-2.5c0-1.4-1.2-2.6-2.6-2.6h-3.2l0,0h-2.6v-1.3h-3.8v1.3
			h-5.5l2.8-1.8c0.1-0.1,0.1-0.3,0-0.3L41,44.2c-0.1-0.1-0.3-0.1-0.4,0l-2.1,1.4l0.1,0.1c0.1,0,0.1,0.1,0,0.2l-2.7,1.7
			c-0.1,0-0.2,0-0.2,0l-0.1-0.1l0,0l-2.5,1.6l2.3,1.5l2.6-1.5l-0.3-0.4c-0.1-0.1-0.1-0.2,0-0.3l2.8-1.7c0.2-0.1,0.4-0.1,0.6,0
			l2.6,1.7c0.5,0.3,0.5,1,0,1.3l-4.8,3.2l0.6,0.4c0.1,0.1,0.1,0.2,0,0.3l-0.7,0.6l0,0L32,59.5l0,0h4.5L44,54h16.5
			c0.2,0,0.3,0.1,0.3,0.3v5.2h0.1c7.6,0,13.8-6.2,13.8-13.8l0,0H55.2z"/>
	</g>
</g>
</svg>
